<svg id="delete" xmlns="http://www.w3.org/2000/svg" viewBox="0 0 12.9 16.59"><title>pen</title><path d="M3.47,15.45A1.85,1.85,0,0,0,5.31,17.3h7.38a1.85,1.85,0,0,0,1.84-1.85V6.23a1.85,1.85,0,0,0-1.84-1.84H5.31A1.85,1.85,0,0,0,3.47,6.23ZM6.23,6.23h5.53a.93.93,0,0,1,.93.93v7.37a.93.93,0,0,1-.93.92H6.23a.92.92,0,0,1-.92-.92V7.16A.93.93,0,0,1,6.23,6.23Zm6-4.6L11.57,1A.93.93,0,0,0,10.93.7H7.07A.93.93,0,0,0,6.43,1l-.66.66H3.47a.92.92,0,1,0,0,1.84H14.53a.92.92,0,0,0,0-1.84Z" transform="translate(-2.55 -0.7)"/></svg>