<svg id="edit" xmlns="http://www.w3.org/2000/svg" viewBox="0 0 483.94 483.89"><title>pen</title><path d="M428.27,19.36a66.64,66.64,0,0,0-94.16,0l-23.57,23.7L59.62,293.85l-.54.53c-.13.13-.13.27-.26.27-.27.4-.67.8-.93,1.2,0,.13-.14.13-.14.26-.27.4-.4.67-.67,1.07-.13.13-.13.26-.26.4-.13.4-.27.67-.4,1.07,0,.12-.13.12-.13.26L.62,466.32A13.08,13.08,0,0,0,3.81,479.9a13.4,13.4,0,0,0,9.46,3.87,15.4,15.4,0,0,0,4.26-.67l167.28-55.8c.13,0,.13,0,.27-.13a4.73,4.73,0,0,0,1.19-.54.43.43,0,0,0,.27-.13c.4-.26.93-.53,1.33-.8s.8-.66,1.2-.93c.14-.14.27-.14.27-.27s.4-.26.53-.53l274.5-274.49a66.64,66.64,0,0,0,0-94.16ZM180.55,396l-92.7-92.69,232-232L412.56,164ZM74.8,328l81,81L34.18,449.41ZM445.59,130.83l-14.12,14.25-92.7-92.7L353,38.14a39.93,39.93,0,0,1,56.46,0l36.23,36.22A40.07,40.07,0,0,1,445.59,130.83Z" transform="translate(0.09 0.12)"/></svg>